<mxfile host="Electron" agent="Mozilla/5.0 (Windows NT 10.0; Win64; x64) AppleWebKit/537.36 (KHTML, like Gecko) draw.io/26.0.16 Chrome/132.0.6834.196 Electron/34.2.0 Safari/537.36" version="26.0.16">
  <diagram name="Page-1" id="DZ_Ugghn-vV0Hri6HdUS">
    <mxGraphModel dx="1574" dy="-135" grid="1" gridSize="10" guides="1" tooltips="1" connect="1" arrows="1" fold="1" page="1" pageScale="1" pageWidth="850" pageHeight="1100" math="0" shadow="0">
      <root>
        <mxCell id="0" />
        <mxCell id="1" parent="0" />
        <mxCell id="ls-YI13QxASkgD9OjI9f-1" value="&lt;strong data-end=&quot;1178&quot; data-start=&quot;1161&quot;&gt;:FoodSearchScreen&lt;/strong&gt;" style="shape=umlLifeline;perimeter=lifelinePerimeter;whiteSpace=wrap;html=1;container=1;dropTarget=0;collapsible=0;recursiveResize=0;outlineConnect=0;portConstraint=eastwest;newEdgeStyle={&quot;curved&quot;:0,&quot;rounded&quot;:0};fillColor=#dae8fc;strokeColor=#6c8ebf;" vertex="1" parent="1">
          <mxGeometry x="330" y="1120" width="130" height="800" as="geometry" />
        </mxCell>
        <mxCell id="ls-YI13QxASkgD9OjI9f-2" value="" style="html=1;points=[[0,0,0,0,5],[0,1,0,0,-5],[1,0,0,0,5],[1,1,0,0,-5]];perimeter=orthogonalPerimeter;outlineConnect=0;targetShapes=umlLifeline;portConstraint=eastwest;newEdgeStyle={&quot;curved&quot;:0,&quot;rounded&quot;:0};" vertex="1" parent="ls-YI13QxASkgD9OjI9f-1">
          <mxGeometry x="60" y="90" width="10" height="670" as="geometry" />
        </mxCell>
        <mxCell id="ls-YI13QxASkgD9OjI9f-3" value="&lt;strong data-end=&quot;1178&quot; data-start=&quot;1161&quot;&gt;:FoodSearchController&lt;/strong&gt;" style="shape=umlLifeline;perimeter=lifelinePerimeter;whiteSpace=wrap;html=1;container=1;dropTarget=0;collapsible=0;recursiveResize=0;outlineConnect=0;portConstraint=eastwest;newEdgeStyle={&quot;curved&quot;:0,&quot;rounded&quot;:0};fillColor=#d5e8d4;strokeColor=#82b366;" vertex="1" parent="1">
          <mxGeometry x="530" y="1120" width="140" height="800" as="geometry" />
        </mxCell>
        <mxCell id="ls-YI13QxASkgD9OjI9f-4" value="" style="html=1;points=[[0,0,0,0,5],[0,1,0,0,-5],[1,0,0,0,5],[1,1,0,0,-5]];perimeter=orthogonalPerimeter;outlineConnect=0;targetShapes=umlLifeline;portConstraint=eastwest;newEdgeStyle={&quot;curved&quot;:0,&quot;rounded&quot;:0};" vertex="1" parent="ls-YI13QxASkgD9OjI9f-3">
          <mxGeometry x="65" y="110" width="10" height="650" as="geometry" />
        </mxCell>
        <mxCell id="ls-YI13QxASkgD9OjI9f-5" value="&lt;strong data-end=&quot;1178&quot; data-start=&quot;1161&quot;&gt;:Database&lt;/strong&gt;&lt;div&gt;&lt;strong data-end=&quot;1178&quot; data-start=&quot;1161&quot;&gt;for dishes&lt;/strong&gt;&lt;/div&gt;" style="shape=umlLifeline;perimeter=lifelinePerimeter;whiteSpace=wrap;html=1;container=1;dropTarget=0;collapsible=0;recursiveResize=0;outlineConnect=0;portConstraint=eastwest;newEdgeStyle={&quot;curved&quot;:0,&quot;rounded&quot;:0};fillColor=#ffe6cc;strokeColor=#d79b00;" vertex="1" parent="1">
          <mxGeometry x="750" y="1120" width="140" height="720" as="geometry" />
        </mxCell>
        <mxCell id="ls-YI13QxASkgD9OjI9f-6" value="" style="html=1;points=[[0,0,0,0,5],[0,1,0,0,-5],[1,0,0,0,5],[1,1,0,0,-5]];perimeter=orthogonalPerimeter;outlineConnect=0;targetShapes=umlLifeline;portConstraint=eastwest;newEdgeStyle={&quot;curved&quot;:0,&quot;rounded&quot;:0};" vertex="1" parent="ls-YI13QxASkgD9OjI9f-5">
          <mxGeometry x="65" y="140" width="10" height="110" as="geometry" />
        </mxCell>
        <mxCell id="ls-YI13QxASkgD9OjI9f-7" value="Button&lt;br&gt;to searchFood" style="html=1;verticalAlign=bottom;startArrow=oval;startFill=1;endArrow=block;startSize=8;curved=0;rounded=0;" edge="1" parent="1">
          <mxGeometry x="0.0048" width="60" relative="1" as="geometry">
            <mxPoint x="220" y="1220" as="sourcePoint" />
            <mxPoint x="390" y="1220" as="targetPoint" />
            <mxPoint as="offset" />
          </mxGeometry>
        </mxCell>
        <mxCell id="ls-YI13QxASkgD9OjI9f-8" value="search(keyword, sortOption)" style="html=1;verticalAlign=bottom;startArrow=oval;startFill=1;endArrow=block;startSize=8;curved=0;rounded=0;" edge="1" parent="1">
          <mxGeometry width="60" relative="1" as="geometry">
            <mxPoint x="394.6666666666665" y="1240" as="sourcePoint" />
            <mxPoint x="599.5" y="1240" as="targetPoint" />
          </mxGeometry>
        </mxCell>
        <mxCell id="ls-YI13QxASkgD9OjI9f-9" value="findByKeyword(keyword)" style="html=1;verticalAlign=bottom;startArrow=oval;startFill=1;endArrow=block;startSize=8;curved=0;rounded=0;" edge="1" parent="1">
          <mxGeometry width="60" relative="1" as="geometry">
            <mxPoint x="605" y="1272" as="sourcePoint" />
            <mxPoint x="815" y="1272" as="targetPoint" />
          </mxGeometry>
        </mxCell>
        <mxCell id="ls-YI13QxASkgD9OjI9f-10" value="GetDishes()" style="html=1;verticalAlign=bottom;endArrow=open;dashed=1;endSize=8;curved=0;rounded=0;" edge="1" parent="1">
          <mxGeometry relative="1" as="geometry">
            <mxPoint x="815" y="1339" as="sourcePoint" />
            <mxPoint x="605" y="1339" as="targetPoint" />
          </mxGeometry>
        </mxCell>
        <mxCell id="ls-YI13QxASkgD9OjI9f-11" value="&lt;strong data-end=&quot;1178&quot; data-start=&quot;1161&quot;&gt;:Database&lt;/strong&gt;&lt;div&gt;&lt;strong data-end=&quot;1178&quot; data-start=&quot;1161&quot;&gt;for recipes&lt;/strong&gt;&lt;/div&gt;" style="shape=umlLifeline;perimeter=lifelinePerimeter;whiteSpace=wrap;html=1;container=1;dropTarget=0;collapsible=0;recursiveResize=0;outlineConnect=0;portConstraint=eastwest;newEdgeStyle={&quot;curved&quot;:0,&quot;rounded&quot;:0};fillColor=#ffe6cc;strokeColor=#d79b00;" vertex="1" parent="1">
          <mxGeometry x="950" y="1120" width="140" height="720" as="geometry" />
        </mxCell>
        <mxCell id="ls-YI13QxASkgD9OjI9f-12" value="" style="html=1;points=[[0,0,0,0,5],[0,1,0,0,-5],[1,0,0,0,5],[1,1,0,0,-5]];perimeter=orthogonalPerimeter;outlineConnect=0;targetShapes=umlLifeline;portConstraint=eastwest;newEdgeStyle={&quot;curved&quot;:0,&quot;rounded&quot;:0};" vertex="1" parent="ls-YI13QxASkgD9OjI9f-11">
          <mxGeometry x="65" y="310" width="10" height="100" as="geometry" />
        </mxCell>
        <mxCell id="ls-YI13QxASkgD9OjI9f-13" value="findByDishIds(dishIds)" style="html=1;verticalAlign=bottom;startArrow=oval;startFill=1;endArrow=block;startSize=8;curved=0;rounded=0;" edge="1" parent="1" source="ls-YI13QxASkgD9OjI9f-4">
          <mxGeometry width="60" relative="1" as="geometry">
            <mxPoint x="610" y="1440" as="sourcePoint" />
            <mxPoint x="1019.5" y="1440" as="targetPoint" />
          </mxGeometry>
        </mxCell>
        <mxCell id="ls-YI13QxASkgD9OjI9f-14" value="GetRecipes()" style="html=1;verticalAlign=bottom;endArrow=open;dashed=1;endSize=8;curved=0;rounded=0;" edge="1" parent="1">
          <mxGeometry relative="1" as="geometry">
            <mxPoint x="1015" y="1499" as="sourcePoint" />
            <mxPoint x="605" y="1499" as="targetPoint" />
          </mxGeometry>
        </mxCell>
        <mxCell id="ls-YI13QxASkgD9OjI9f-15" value="&lt;strong data-end=&quot;1178&quot; data-start=&quot;1161&quot;&gt;:SortHelper&lt;/strong&gt;" style="shape=umlLifeline;perimeter=lifelinePerimeter;whiteSpace=wrap;html=1;container=1;dropTarget=0;collapsible=0;recursiveResize=0;outlineConnect=0;portConstraint=eastwest;newEdgeStyle={&quot;curved&quot;:0,&quot;rounded&quot;:0};fillColor=#d5e8d4;strokeColor=#82b366;" vertex="1" parent="1">
          <mxGeometry x="1150" y="1120" width="140" height="720" as="geometry" />
        </mxCell>
        <mxCell id="ls-YI13QxASkgD9OjI9f-16" value="sort(results, strategy)" style="html=1;verticalAlign=bottom;startArrow=oval;startFill=1;endArrow=block;startSize=8;curved=0;rounded=0;" edge="1" parent="1" source="ls-YI13QxASkgD9OjI9f-4">
          <mxGeometry width="60" relative="1" as="geometry">
            <mxPoint x="630" y="1600" as="sourcePoint" />
            <mxPoint x="1210" y="1600" as="targetPoint" />
          </mxGeometry>
        </mxCell>
        <mxCell id="ls-YI13QxASkgD9OjI9f-17" value="sortedResults" style="html=1;verticalAlign=bottom;endArrow=open;dashed=1;endSize=8;curved=0;rounded=0;" edge="1" parent="1">
          <mxGeometry x="-0.0003" relative="1" as="geometry">
            <mxPoint x="1215" y="1668" as="sourcePoint" />
            <mxPoint x="605" y="1668" as="targetPoint" />
            <mxPoint as="offset" />
          </mxGeometry>
        </mxCell>
        <mxCell id="ls-YI13QxASkgD9OjI9f-18" value="display(sortedResults)" style="html=1;verticalAlign=bottom;startArrow=oval;startFill=1;endArrow=block;startSize=8;curved=0;rounded=0;" edge="1" parent="1">
          <mxGeometry width="60" relative="1" as="geometry">
            <mxPoint x="595" y="1768" as="sourcePoint" />
            <mxPoint x="394.4473684210525" y="1768" as="targetPoint" />
          </mxGeometry>
        </mxCell>
        <mxCell id="ls-YI13QxASkgD9OjI9f-19" value="" style="shape=umlLifeline;perimeter=lifelinePerimeter;whiteSpace=wrap;html=1;container=1;dropTarget=0;collapsible=0;recursiveResize=0;outlineConnect=0;portConstraint=eastwest;newEdgeStyle={&quot;curved&quot;:0,&quot;rounded&quot;:0};participant=umlActor;" vertex="1" parent="1">
          <mxGeometry x="210" y="1120" width="20" height="800" as="geometry" />
        </mxCell>
        <mxCell id="ls-YI13QxASkgD9OjI9f-20" value="" style="html=1;points=[[0,0,0,0,5],[0,1,0,0,-5],[1,0,0,0,5],[1,1,0,0,-5]];perimeter=orthogonalPerimeter;outlineConnect=0;targetShapes=umlLifeline;portConstraint=eastwest;newEdgeStyle={&quot;curved&quot;:0,&quot;rounded&quot;:0};" vertex="1" parent="ls-YI13QxASkgD9OjI9f-19">
          <mxGeometry x="5" y="80" width="10" height="680" as="geometry" />
        </mxCell>
        <mxCell id="ls-YI13QxASkgD9OjI9f-21" value="&lt;span style=&quot;text-wrap-mode: nowrap;&quot;&gt;RestCustomer&lt;/span&gt;" style="text;html=1;align=center;verticalAlign=middle;whiteSpace=wrap;rounded=0;" vertex="1" parent="1">
          <mxGeometry x="180" y="1150" width="60" height="30" as="geometry" />
        </mxCell>
        <mxCell id="ls-YI13QxASkgD9OjI9f-22" value="" style="html=1;points=[[0,0,0,0,5],[0,1,0,0,-5],[1,0,0,0,5],[1,1,0,0,-5]];perimeter=orthogonalPerimeter;outlineConnect=0;targetShapes=umlLifeline;portConstraint=eastwest;newEdgeStyle={&quot;curved&quot;:0,&quot;rounded&quot;:0};" vertex="1" parent="1">
          <mxGeometry x="1215" y="1590" width="10" height="100" as="geometry" />
        </mxCell>
        <mxCell id="ls-YI13QxASkgD9OjI9f-23" value="Alternative" style="shape=umlFrame;whiteSpace=wrap;html=1;pointerEvents=0;recursiveResize=0;container=1;collapsible=0;width=170;" vertex="1" parent="1">
          <mxGeometry x="75" y="1460" width="1175" height="470" as="geometry" />
        </mxCell>
        <mxCell id="ls-YI13QxASkgD9OjI9f-24" value="Result != 0" style="text;html=1;" vertex="1" parent="ls-YI13QxASkgD9OjI9f-23">
          <mxGeometry width="100" height="20" relative="1" as="geometry">
            <mxPoint x="20" y="40" as="offset" />
          </mxGeometry>
        </mxCell>
        <mxCell id="ls-YI13QxASkgD9OjI9f-25" value="Result == 0" style="line;strokeWidth=1;dashed=1;labelPosition=center;verticalLabelPosition=bottom;align=left;verticalAlign=top;spacingLeft=20;spacingTop=15;html=1;whiteSpace=wrap;" vertex="1" parent="ls-YI13QxASkgD9OjI9f-23">
          <mxGeometry y="345" width="1170" height="10" as="geometry" />
        </mxCell>
        <mxCell id="ls-YI13QxASkgD9OjI9f-26" value="showError()" style="html=1;verticalAlign=bottom;endArrow=open;dashed=1;endSize=8;curved=0;rounded=0;" edge="1" parent="1">
          <mxGeometry x="-0.0003" relative="1" as="geometry">
            <mxPoint x="595" y="1836" as="sourcePoint" />
            <mxPoint x="400" y="1836" as="targetPoint" />
            <mxPoint as="offset" />
          </mxGeometry>
        </mxCell>
      </root>
    </mxGraphModel>
  </diagram>
</mxfile>
